<svg xmlns="http://www.w3.org/2000/svg" width="23" height="22" viewBox="0 0 23 22">
    <path fill="#F7D73B" fill-rule="evenodd" stroke="#F7D73B" stroke-linecap="round" stroke-linejoin="round" stroke-width="2" d="M1.01 6.635a5.421 5.421 0 0 1-.005-.236C1.005 3.417 3.454 1 6.475 1a5.48 5.48 0 0 1 4.785 2.782A5.65 5.65 0 0 1 16.144 1c3.115 0 5.64 2.492 5.64 5.567 0 .073-.002.147-.005.22.005.062.006.126.005.191C21.642 12.366 11.39 20.56 11.39 20.56S1.393 12.465 1.005 6.98a1.935 1.935 0 0 1 .005-.344z"/>
</svg>
