<svg xmlns="http://www.w3.org/2000/svg" width="30" height="30" viewBox="0 0 30 30">
    <g fill="none" fill-rule="evenodd">
        <path stroke="#F7D73B" stroke-width="2" d="M25.53 18.187l.18-.595.613-.102 1.963-.327a.851.851 0 0 0 .714-.844v-2.652a.83.83 0 0 0-.703-.83l-2.59-.44-.179-.591a10.927 10.927 0 0 0-.824-1.986l-.293-.548.361-.505 1.167-1.632a.849.849 0 0 0-.093-1.101l-1.868-1.868a.84.84 0 0 0-1.094-.093l-2.141 1.525-.548-.294a10.926 10.926 0 0 0-2.059-.85l-.597-.177-.104-.615-.329-1.949A.851.851 0 0 0 16.263 1h-2.639c-.42 0-.774.3-.844.716l-.442 2.591-.587.182a10.93 10.93 0 0 0-1.996.842l-.552.3-2.117-1.523a.84.84 0 0 0-.493-.156.835.835 0 0 0-.604.253L4.116 6.072a.855.855 0 0 0-.093 1.1l1.534 2.155-.289.545c-.336.637-.61 1.306-.815 1.998l-.178.598-.615.103-1.947.329a.851.851 0 0 0-.713.843v2.639c0 .42.3.774.716.844l2.593.442.181.587c.215.691.497 1.359.843 1.993l.3.552-.366.51-1.15 1.6a.849.849 0 0 0 .093 1.1l1.868 1.867a.84.84 0 0 0 1.094.093l2.15-1.53.545.29c.619.327 1.268.595 1.94.799l.594.18.102.612.328 1.966c.07.414.423.713.843.713h2.645c.42 0 .774-.3.844-.715l.437-2.577.592-.18c.692-.21 1.36-.487 1.997-.829l.548-.294.506.362 1.627 1.163a.84.84 0 0 0 .493.156.84.84 0 0 0 .603-.252l1.867-1.868a.855.855 0 0 0 .093-1.1l-1.518-2.133.293-.547c.342-.637.62-1.306.83-2z"/>
        <path fill="#F7D73B" d="M7.5 15c0 4.138 3.362 7.5 7.5 7.5s7.5-3.362 7.5-7.5-3.362-7.5-7.5-7.5A7.505 7.505 0 0 0 7.5 15z"/>
    </g>
</svg>
