<?xml version="1.0" encoding="UTF-8" standalone="no"?>
<svg width="108px" height="108px" viewBox="0 0 108 108" version="1.1" xmlns="http://www.w3.org/2000/svg" xmlns:xlink="http://www.w3.org/1999/xlink">
    <!-- Generator: sketchtool 45.1 (43504) - http://www.bohemiancoding.com/sketch -->
    <title>C0DC0B5A-8C78-4AAE-B7CE-FDA9E3F3F69A</title>
    <desc>Created with sketchtool.</desc>
    <defs>
        <filter x="-11.2%" y="-7.5%" width="125.1%" height="116.5%" filterUnits="objectBoundingBox" id="filter-1">
            <feOffset dx="2" dy="2" in="SourceAlpha" result="shadowOffsetOuter1"></feOffset>
            <feGaussianBlur stdDeviation="7" in="shadowOffsetOuter1" result="shadowBlurOuter1"></feGaussianBlur>
            <feColorMatrix values="0 0 0 0 0   0 0 0 0 0   0 0 0 0 0  0 0 0 0.5 0" type="matrix" in="shadowBlurOuter1" result="shadowMatrixOuter1"></feColorMatrix>
            <feMerge>
                <feMergeNode in="shadowMatrixOuter1"></feMergeNode>
                <feMergeNode in="SourceGraphic"></feMergeNode>
            </feMerge>
        </filter>
    </defs>
    <g id="1st-Screen-Symbols" stroke="none" stroke-width="1" fill="none" fill-rule="evenodd">
        <g id="Dive/SmartTV/Contenedores/No_Photo" transform="translate(-46.000000, -87.000000)" fill-rule="nonzero" fill="#909090">
            <g id="Card_02" transform="translate(1.000000, 0.000000)">
                <g id="Card_Personaje" transform="translate(7.000000, 6.000000)">
                    <g id="Movie_Poster" filter="url(#filter-1)">
                        <g id="ico_nophoto" transform="translate(50.000000, 93.000000)">
                            <path d="M16.0773333,27.3295754 L50.7491084,67.9556403 L62.6667375,52.867971 L72.3586202,59.4970046 L74.0957067,56.9573223 L62.0327817,48.7065482 L50.6571416,63.1080616 L16.5308398,23.1211457 L1.1425487,34.8100712 L3.00372,37.2602747 L8.80151533,32.8562771 C14.2583788,28.7112508 15.0072609,28.142401 16.4639928,27.0358693 L16.0773333,27.3295754 Z" id="Path-862"></path>
                            <path d="M55.3846154,40 C50.2866023,40 46.1538462,35.8672438 46.1538462,30.7692308 C46.1538462,25.6712177 50.2866023,21.5384615 55.3846154,21.5384615 C60.4826285,21.5384615 64.6153846,25.6712177 64.6153846,30.7692308 C64.6153846,35.8672438 60.4826285,40 55.3846154,40 Z M55.3846154,36.9230769 C58.7832908,36.9230769 61.5384615,34.1679062 61.5384615,30.7692308 C61.5384615,27.3705554 58.7832908,24.6153846 55.3846154,24.6153846 C51.98594,24.6153846 49.2307692,27.3705554 49.2307692,30.7692308 C49.2307692,34.1679062 51.98594,36.9230769 55.3846154,36.9230769 Z" id="Oval-165"></path>
                            <path d="M40,80 C17.90861,80 0,62.09139 0,40 C0,17.90861 17.90861,0 40,0 C62.09139,0 80,17.90861 80,40 C80,62.09139 62.09139,80 40,80 Z M40,76.9230769 C60.3920523,76.9230769 76.9230769,60.3920523 76.9230769,40 C76.9230769,19.6079477 60.3920523,3.07692308 40,3.07692308 C19.6079477,3.07692308 3.07692308,19.6079477 3.07692308,40 C3.07692308,60.3920523 19.6079477,76.9230769 40,76.9230769 Z" id="Oval-194"></path>
                        </g>
                    </g>
                </g>
            </g>
        </g>
    </g>
</svg>