<?xml version="1.0" encoding="UTF-8" standalone="no"?>
<svg width="23px" height="22px" viewBox="0 0 23 22" version="1.1" xmlns="http://www.w3.org/2000/svg" xmlns:xlink="http://www.w3.org/1999/xlink">
    <!-- Generator: sketchtool 46.2 (44496) - http://www.bohemiancoding.com/sketch -->
    <title>DFFC2FF2-35FE-4214-8E6A-0902C36AAC05</title>
    <desc>Created with sketchtool.</desc>
    <defs></defs>
    <g id="Dive_First_Screen" stroke="none" stroke-width="1" fill="none" fill-rule="evenodd" stroke-linecap="round" stroke-linejoin="round">
        <g id="My_Cards" transform="translate(-293.000000, -892.000000)" stroke="#1C1D1D" stroke-width="2">
            <g id="Focus" transform="translate(30.000000, 702.000000)">
                <g id="Info" transform="translate(190.000000, 25.000000)">
                    <g transform="translate(21.000000, 24.000000)" id="Save">
                        <g transform="translate(0.000000, 132.000000)">
                            <g id="Group-2" transform="translate(53.000000, 10.000000)">
                                <path d="M0.0103368704,5.6348637 C0.00694138978,5.55663781 0.00522622311,5.47798055 0.00522622311,5.39892644 C0.00522622311,2.4171817 2.44527423,0 5.45522598,0 C7.50655257,0 9.2931803,1.12268998 10.2231375,2.78164578 C11.1950289,1.11869211 13.0105412,0 15.0898098,0 C18.1933714,0 20.7093051,2.49235631 20.7093051,5.56683363 C20.7093051,5.64049187 20.707861,5.71381598 20.7049993,5.78677969 C20.7095554,5.84904787 20.7110166,5.91293957 20.7093051,5.97849752 C20.5686554,11.366101 10.3540971,19.5594436 10.3540971,19.5594436 C10.3540971,19.5594436 0.391703722,11.4653291 0.00522622311,5.97849752 C-0.00321964492,5.8585913 -0.0013672876,5.74412807 0.0103368704,5.6348637 Z" id="ico_like"></path>
                            </g>
                        </g>
                    </g>
                </g>
            </g>
        </g>
    </g>
</svg>